<svg width="32" height="32" viewBox="0 0 32 32" fill="none" xmlns="http://www.w3.org/2000/svg">
<g clip-path="url(#clip0_8_9)">
<mask id="path-1-inside-1_8_9" fill="white">
<path fill-rule="evenodd" clip-rule="evenodd" d="M16 0H16C15.9823 8.82153 8.82568 15.9673 3.39191e-05 15.9673L0 16C8.83656 16 16 23.1634 16 32C16 32 16 32 16 32C16 31.9898 16 31.9795 16 31.9693C16 23.3699 22.7841 16.355 31.2923 15.9846C22.7841 15.6143 16 8.5994 16 0Z"/>
</mask>
<path fill-rule="evenodd" clip-rule="evenodd" d="M16 0H16C15.9823 8.82153 8.82568 15.9673 3.39191e-05 15.9673L0 16C8.83656 16 16 23.1634 16 32C16 32 16 32 16 32C16 31.9898 16 31.9795 16 31.9693C16 23.3699 22.7841 16.355 31.2923 15.9846C22.7841 15.6143 16 8.5994 16 0Z" fill="black"/>
<path d="M16 0V-0.5H15.501L15.5 -0.000999183L16 0ZM16 0H16.5V-0.5H16V0ZM3.39191e-05 15.9673L3.28925e-05 15.4673L-0.499447 15.4673L-0.499966 15.9668L3.39191e-05 15.9673ZM0 16L-0.5 15.9995L-0.500519 16.5H0V16ZM16 32H15.5V32.5H16V32ZM16 32V32.5H16.501L16.5 31.9991L16 32ZM31.2923 15.9846L31.314 16.4842L31.314 15.4851L31.2923 15.9846ZM16 0.5H16V-0.5H16V0.5ZM3.49456e-05 16.4673C9.10149 16.4673 16.4818 9.09822 16.5 0.000999183L15.5 -0.000999183C15.4829 8.54483 8.54988 15.4673 3.28925e-05 15.4673L3.49456e-05 16.4673ZM0.5 16.0005L0.500034 15.9679L-0.499966 15.9668L-0.5 15.9995L0.5 16.0005ZM16.5 32C16.5 22.8873 9.1127 15.5 0 15.5V16.5C8.56041 16.5 15.5 23.4396 15.5 32H16.5ZM16 31.5C16 31.5 16 31.5 16 31.5C16 31.5 16 31.5 16 31.5C16 31.5 16 31.5 16 31.5C16 31.5 16 31.5 16 31.5C16 31.5 16 31.5 16 31.5C16 31.5 16 31.5 16 31.5C16 31.5 16 31.5 16 31.5C16 31.5 16 31.5 16 31.5C16 31.5 16 31.5 16 31.5C16 31.5 16 31.5 16 31.5C16 31.5 16 31.5 16 31.5C16 31.5 16 31.5 16 31.5C16 31.5 16 31.5 16 31.5C16 31.5 16 31.5 16 31.5C16 31.5 16 31.5 16 31.5C16 31.5 16 31.5 16 31.5C16 31.5 16 31.5 16 31.5C16 31.5 16 31.5 16 31.5C16 31.5 16 31.5 16 31.5C16 31.5 16 31.5 16 31.5C16 31.5 16 31.5 16 31.5C16 31.5 16 31.5 16 31.5C16 31.5 16 31.5 16 31.5C16 31.5 16 31.5 16 31.5C16 31.5 16 31.5 16 31.5C16 31.5 16 31.5 16 31.5C16 31.5 16 31.5 16 31.5C16 31.5 16 31.5 16 31.5C16 31.5 16 31.5 16 31.5C16 31.5 16 31.5 16 31.5C16 31.5 16 31.5 16 31.5C16 31.5 16 31.5 16 31.5C16 31.5 16 31.5 16 31.5C16 31.5 16 31.5 16 31.5C16 31.5 16 31.5 16 31.5C16 31.5 16 31.5 16 31.5C16 31.5 16 31.5 16 31.5C16 31.5 16 31.5 16 31.5C16 31.5 16 31.5 16 31.5C16 31.5 16 31.5 16 31.5C16 31.5 16 31.5 16 31.5C16 31.5 16 31.5 16 31.5C16 31.5 16 31.5 16 31.5C16 31.5 16 31.5 16 31.5C16 31.5 16 31.5 16 31.5C16 31.5 16 31.5 16 31.5C16 31.5 16 31.5 16 31.5C16 31.5 16 31.5 16 31.5C16 31.5 16 31.5 16 31.5C16 31.5 16 31.5 16 31.5C16 31.5 16 31.5 16 31.5C16 31.5 16 31.5 16 31.5C16 31.5 16 31.5 16 31.5C16 31.5 16 31.5 16 31.5C16 31.5 16 31.5 16 31.5C16 31.5 16 31.5 16 31.5C16 31.5 16 31.5 16 31.5C16 31.5 16 31.5 16 31.5C16 31.5 16 31.5 16 31.5C16 31.5 16 31.5 16 31.5C16 31.5 16 31.5 16 31.5C16 31.5 16 31.5 16 31.5C16 31.5 16 31.5 16 31.5C16 31.5 16 31.5 16 31.5C16 31.5 16 31.5 16 31.5C16 31.5 16 31.5 16 31.5C16 31.5 16 31.5 16 31.5C16 31.5 16 31.5 16 31.5C16 31.5 16 31.5 16 31.5C16 31.5 16 31.5 16 31.5C16 31.5 16 31.5 16 31.5C16 31.5 16 31.5 16 31.5C16 31.5 16 31.5 16 31.5C16 31.5 16 31.5 16 31.5C16 31.5 16 31.5 16 31.5C16 31.5 16 31.5 16 31.5C16 31.5 16 31.5 16 31.5C16 31.5 16 31.5 16 31.5C16 31.5 16 31.5 16 31.5C16 31.5 16 31.5 16 31.5C16 31.5 16 31.5 16 31.5C16 31.5 16 31.5 16 31.5C16 31.5 16 31.5 16 31.5C16 31.5 16 31.5 16 31.5C16 31.5 16 31.5 16 31.5C16 31.5 16 31.5 16 31.5C16 31.5 16 31.5 16 31.5C16 31.5 16 31.5 16 31.5C16 31.5 16 31.5 16 31.5C16 31.5 16 31.5 16 31.5C16 31.5 16 31.5 16 31.5C16 31.5 16 31.5 16 31.5C16 31.5 16 31.5 16 31.5C16 31.5 16 31.5 16 31.5C16 31.5 16 31.5 16 31.5C16 31.5 16 31.5 16 31.5C16 31.5 16 31.5 16 31.5C16 31.5 16 31.5 16 31.5C16 31.5 16 31.5 16 31.5C16 31.5 16 31.5 16 31.5C16 31.5 16 31.5 16 31.5C16 31.5 16 31.5 16 31.5C16 31.5 16 31.5 16 31.5C16 31.5 16 31.5 16 31.5C16 31.5 16 31.5 16 31.5C16 31.5 16 31.5 16 31.5C16 31.5 16 31.5 16 31.5C16 31.5 16 31.5 16 31.5C16 31.5 16 31.5 16 31.5C16 31.5 16 31.5 16 31.5C16 31.5 16 31.5 16 31.5C16 31.5 16 31.5 16 31.5C16 31.5 16 31.5 16 31.5C16 31.5 16 31.5 16 31.5C16 31.5 16 31.5 16 31.5C16 31.5 16 31.5 16 31.5C16 31.5 16 31.5 16 31.5C16 31.5 16 31.5 16 31.5C16 31.5 16 31.5 16 31.5C16 31.5 16 31.5 16 31.5C16 31.5 16 31.5 16 31.5C16 31.5 16 31.5 16 31.5C16 31.5 16 31.5 16 31.5C16 31.5 16 31.5 16 31.5C16 31.5 16 31.5 16 31.5C16 31.5 16 31.5 16 31.5C16 31.5 16 31.5 16 31.5C16 31.5 16 31.5 16 31.5C16 31.5 16 31.5 16 31.5C16 31.5 16 31.5 16 31.5C16 31.5 16 31.5 16 31.5C16 31.5 16 31.5 16 31.5C16 31.5 16 31.5 16 31.5C16 31.5 16 31.5 16 31.5C16 31.5 16 31.5 16 31.5C16 31.5 16 31.5 16 31.5C16 31.5 16 31.5 16 31.5C16 31.5 16 31.5 16 31.5C16 31.5 16 31.5 16 31.5C16 31.5 16 31.5 16 31.5C16 31.5 16 31.5 16 31.5C16 31.5 16 31.5 16 31.5C16 31.5 16 31.5 16 31.5C16 31.5 16 31.5 16 31.5C16 31.5 16 31.5 16 31.5C16 31.5 16 31.5 16 31.5C16 31.5 16 31.5 16 31.5C16 31.5 16 31.5 16 31.5C16 31.5 16 31.5 16 31.5C16 31.5 16 31.5 16 31.5C16 31.5 16 31.5 16 31.5C16 31.5 16 31.5 16 31.5C16 31.5 16 31.5 16 31.5C16 31.5 16 31.5 16 31.5C16 31.5 16 31.5 16 31.5C16 31.5 16 31.5 16 31.5C16 31.5 16 31.5 16 31.5C16 31.5 16 31.5 16 31.5C16 31.5 16 31.5 16 31.5C16 31.5 16 31.5 16 31.5C16 31.5 16 31.5 16 31.5C16 31.5 16 31.5 16 31.5C16 31.5 16 31.5 16 31.5C16 31.5 16 31.5 16 31.5C16 31.5 16 31.5 16 31.5C16 31.5 16 31.5 16 31.5C16 31.5 16 31.5 16 31.5C16 31.5 16 31.5 16 31.5C16 31.5 16 31.5 16 31.5C16 31.5 16 31.5 16 31.5C16 31.5 16 31.5 16 31.5C16 31.5 16 31.5 16 31.5C16 31.5 16 31.5 16 31.5C16 31.5 16 31.5 16 31.5C16 31.5 16 31.5 16 31.5C16 31.5 16 31.5 16 31.5C16 31.5 16 31.5 16 31.5C16 31.5 16 31.5 16 31.5C16 31.5 16 31.5 16 31.5C16 31.5 16 31.5 16 31.5C16 31.5 16 31.5 16 31.5C16 31.5 16 31.5 16 31.5C16 31.5 16 31.5 16 31.5C16 31.5 16 31.5 16 31.5C16 31.5 16 31.5 16 31.5C16 31.5 16 31.5 16 31.5C16 31.5 16 31.5 16 31.5C16 31.5 16 31.5 16 31.5C16 31.5 16 31.5 16 31.5C16 31.5 16 31.5 16 31.5C16 31.5 16 31.5 16 31.5C16 31.5 16 31.5 16 31.5C16 31.5 16 31.5 16 31.5C16 31.5 16 31.5 16 31.5C16 31.5 16 31.5 16 31.5C16 31.5 16 31.5 16 31.5C16 31.5 16 31.5 16 31.5C16 31.5 16 31.5 16 31.5C16 31.5 16 31.5 16 31.5C16 31.5 16 31.5 16 31.5C16 31.5 16 31.5 16 31.5C16 31.5 16 31.5 16 31.5C16 31.5 16 31.5 16 31.5C16 31.5 16 31.5 16 31.5C16 31.5 16 31.5 16 31.5C16 31.5 16 31.5 16 31.5C16 31.5 16 31.5 16 31.5C16 31.5 16 31.5 16 31.5C16 31.5 16 31.5 16 31.5C16 31.5 16 31.5 16 31.5C16 31.5 16 31.5 16 31.5C16 31.5 16 31.5 16 31.5C16 31.5 16 31.5 16 31.5C16 31.5 16 31.5 16 31.5C16 31.5 16 31.5 16 31.5C16 31.5 16 31.5 16 31.5C16 31.5 16 31.5 16 31.5C16 31.5 16 31.5 16 31.5C16 31.5 16 31.5 16 31.5C16 31.5 16 31.5 16 31.5C16 31.5 16 31.5 16 31.5C16 31.5 16 31.5 16 31.5C16 31.5 16 31.5 16 31.5C16 31.5 16 31.5 16 31.5C16 31.5 16 31.5 16 31.5C16 31.5 16 31.5 16 31.5C16 31.5 16 31.5 16 31.5C16 31.5 16 31.5 16 31.5C16 31.5 16 31.5 16 31.5C16 31.5 16 31.5 16 31.5C16 31.5 16 31.5 16 31.5C16 31.5 16 31.5 16 31.5C16 31.5 16 31.5 16 31.5C16 31.5 16 31.5 16 31.5C16 31.5 16 31.5 16 31.5C16 31.5 16 31.5 16 31.5C16 31.5 16 31.5 16 31.5C16 31.5 16 31.5 16 31.5C16 31.5 16 31.5 16 31.5C16 31.5 16 31.5 16 31.5C16 31.5 16 31.5 16 31.5C16 31.5 16 31.5 16 31.5C16 31.5 16 31.5 16 31.5C16 31.5 16 31.5 16 31.5C16 31.5 16 31.5 16 31.5C16 31.5 16 31.5 16 31.5C16 31.5 16 31.5 16 31.5C16 31.5 16 31.5 16 31.5C16 31.5 16 31.5 16 31.5C16 31.5 16 31.5 16 31.5C16 31.5 16 31.5 16 31.5C16 31.5 16 31.5 16 31.5C16 31.5 16 31.5 16 31.5C16 31.5 16 31.5 16 31.5C16 31.5 16 31.5 16 31.5C16 31.5 16 31.5 16 31.5C16 31.5 16 31.5 16 31.5C16 31.5 16 31.5 16 31.5C16 31.5 16 31.5 16 31.5C16 31.5 16 31.5 16 31.5C16 31.5 16 31.5 16 31.5C16 31.5 16 31.5 16 31.5C16 31.5 16 31.5 16 31.5C16 31.5 16 31.5 16 31.5C16 31.5 16 31.5 16 31.5C16 31.5 16 31.5 16 31.5C16 31.5 16 31.5 16 31.5C16 31.5 16 31.5 16 31.5C16 31.5 16 31.5 16 31.5C16 31.5 16 31.5 16 31.5C16 31.5 16 31.5 16 31.5C16 31.5 16 31.5 16 31.5C16 31.5 16 31.5 16 31.5C16 31.5 16 31.5 16 31.5C16 31.5 16 31.5 16 31.5C16 31.5 16 31.5 16 31.5C16 31.5 16 31.5 16 31.5C16 31.5 16 31.5 16 31.5C16 31.5 16 31.5 16 31.5C16 31.5 16 31.5 16 31.5C16 31.5 16 31.5 16 31.5C16 31.5 16 31.5 16 31.5C16 31.5 16 31.5 16 31.5C16 31.5 16 31.5 16 31.5C16 31.5 16 31.5 16 31.5C16 31.5 16 31.5 16 31.5C16 31.5 16 31.5 16 31.5C16 31.5 16 31.5 16 31.5C16 31.5 16 31.5 16 31.5C16 31.5 16 31.5 16 31.5C16 31.5 16 31.5 16 31.5C16 31.5 16 31.5 16 31.5C16 31.5 16 31.5 16 31.5C16 31.5 16 31.5 16 31.5C16 31.5 16 31.5 16 31.5C16 31.5 16 31.5 16 31.5C16 31.5 16 31.5 16 31.5C16 31.5 16 31.5 16 31.5C16 31.5 16 31.5 16 31.5C16 31.5 16 31.5 16 31.5C16 31.5 16 31.5 16 31.5C16 31.5 16 31.5 16 31.5C16 31.5 16 31.5 16 31.5C16 31.5 16 31.5 16 31.5C16 31.5 16 31.5 16 31.5C16 31.5 16 31.5 16 31.5C16 31.5 16 31.5 16 31.5C16 31.5 16 31.5 16 31.5C16 31.5 16 31.5 16 31.5C16 31.5 16 31.5 16 31.5C16 31.5 16 31.5 16 31.5C16 31.5 16 31.5 16 31.5C16 31.5 16 31.5 16 31.5C16 31.5 16 31.5 16 31.5C16 31.5 16 31.5 16 31.5C16 31.5 16 31.5 16 31.5C16 31.5 16 31.5 16 31.5C16 31.5 16 31.5 16 31.5C16 31.5 16 31.5 16 31.5C16 31.5 16 31.5 16 31.5C16 31.5 16 31.5 16 31.5C16 31.5 16 31.5 16 31.5C16 31.5 16 31.5 16 31.5C16 31.5 16 31.5 16 31.5C16 31.5 16 31.5 16 31.5C16 31.5 16 31.5 16 31.5C16 31.5 16 31.5 16 31.5C16 31.5 16 31.5 16 31.5C16 31.5 16 31.5 16 31.5C16 31.5 16 31.5 16 31.5C16 31.5 16 31.5 16 31.5C16 31.5 16 31.5 16 31.5C16 31.5 16 31.5 16 31.5C16 31.5 16 31.5 16 31.5C16 31.5 16 31.5 16 31.5C16 31.5 16 31.5 16 31.5C16 31.5 16 31.5 16 31.5C16 31.5 16 31.5 16 31.5C16 31.5 16 31.5 16 31.5C16 31.5 16 31.5 16 31.5C16 31.5 16 31.5 16 31.5C16 31.5 16 31.5 16 31.5C16 31.5 16 31.5 16 31.5C16 31.5 16 31.5 16 31.5C16 31.5 16 31.5 16 31.5C16 31.5 16 31.5 16 31.5C16 31.5 16 31.5 16 31.5C16 31.5 16 31.5 16 31.5C16 31.5 16 31.5 16 31.5C16 31.5 16 31.5 16 31.5C16 31.5 16 31.5 16 31.5C16 31.5 16 31.5 16 31.5C16 31.5 16 31.5 16 31.5C16 31.5 16 31.5 16 31.5C16 31.5 16 31.5 16 31.5C16 31.5 16 31.5 16 31.5C16 31.5 16 31.5 16 31.5C16 31.5 16 31.5 16 31.5C16 31.5 16 31.5 16 31.5C16 31.5 16 31.5 16 31.5C16 31.5 16 31.5 16 31.5C16 31.5 16 31.5 16 31.5C16 31.5 16 31.5 16 31.5C16 31.5 16 31.5 16 31.5C16 31.5 16 31.5 16 31.5C16 31.5 16 31.5 16 31.5C16 31.5 16 31.5 16 31.5C16 31.5 16 31.5 16 31.5C16 31.5 16 31.5 16 31.5C16 31.5 16 31.5 16 31.5C16 31.5 16 31.5 16 31.5C16 31.5 16 31.5 16 31.5C16 31.5 16 31.5 16 31.5C16 31.5 16 31.5 16 31.5C16 31.5 16 31.5 16 31.5C16 31.5 16 31.5 16 31.5C16 31.5 16 31.5 16 31.5C16 31.5 16 31.5 16 31.5C16 31.5 16 31.5 16 31.5C16 31.5 16 31.5 16 31.5C16 31.5 16 31.5 16 31.5C16 31.5 16 31.5 16 31.5C16 31.5 16 31.5 16 31.5C16 31.5 16 31.5 16 31.5C16 31.5 16 31.5 16 31.5C16 31.5 16 31.5 16 31.5C16 31.5 16 31.5 16 31.5C16 31.5 16 31.5 16 31.5C16 31.5 16 31.5 16 31.5C16 31.5 16 31.5 16 31.5C16 31.5 16 31.5 16 31.5C16 31.5 16 31.5 16 31.5C16 31.5 16 31.5 16 31.5C16 31.5 16 31.5 16 31.5C16 31.5 16 31.5 16 31.5C16 31.5 16 31.5 16 31.5C16 31.5 16 31.5 16 31.5C16 31.5 16 31.5 16 31.5C16 31.5 16 31.5 16 31.5C16 31.5 16 31.5 16 31.5C16 31.5 16 31.5 16 31.5C16 31.5 16 31.5 16 31.5C16 31.5 16 31.5 16 31.5C16 31.5 16 31.5 16 31.5C16 31.5 16 31.5 16 31.5C16 31.5 16 31.5 16 31.5C16 31.5 16 31.5 16 31.5C16 31.5 16 31.5 16 31.5C16 31.5 16 31.5 16 31.5C16 31.5 16 31.5 16 31.5C16 31.5 16 31.5 16 31.5C16 31.5 16 31.5 16 31.5C16 31.5 16 31.5 16 31.5C16 31.5 16 31.5 16 31.5C16 31.5 16 31.5 16 31.5C16 31.5 16 31.5 16 31.5C16 31.5 16 31.5 16 31.5C16 31.5 16 31.5 16 31.5C16 31.5 16 31.5 16 31.5C16 31.5 16 31.5 16 31.5C16 31.5 16 31.5 16 31.5C16 31.5 16 31.5 16 31.5C16 31.5 16 31.5 16 31.5C16 31.5 16 31.5 16 31.5C16 31.5 16 31.5 16 31.5C16 31.5 16 31.5 16 31.5C16 31.5 16 31.5 16 31.5C16 31.5 16 31.5 16 31.5C16 31.5 16 31.5 16 31.5C16 31.5 16 31.5 16 31.5C16 31.5 16 31.5 16 31.5C16 31.5 16 31.5 16 31.5C16 31.5 16 31.5 16 31.5C16 31.5 16 31.5 16 31.5C16 31.5 16 31.5 16 31.5C16 31.5 16 31.5 16 31.5C16 31.5 16 31.5 16 31.5C16 31.5 16 31.5 16 31.5C16 31.5 16 31.5 16 31.5C16 31.5 16 31.5 16 31.5C16 31.5 16 31.5 16 31.5C16 31.5 16 31.5 16 31.5C16 31.5 16 31.5 16 31.5C16 31.5 16 31.5 16 31.5C16 31.5 16 31.5 16 31.5C16 31.5 16 31.5 16 31.5C16 31.5 16 31.5 16 31.5C16 31.5 16 31.5 16 31.5C16 31.5 16 31.5 16 31.5C16 31.5 16 31.5 16 31.5C16 31.5 16 31.5 16 31.5C16 31.5 16 31.5 16 31.5C16 31.5 16 31.5 16 31.5C16 31.5 16 31.5 16 31.5C16 31.5 16 31.5 16 31.5C16 31.5 16 31.5 16 31.5C16 31.5 16 31.5 16 31.5C16 31.5 16 31.5 16 31.5C16 31.5 16 31.5 16 31.5C16 31.5 16 31.5 16 31.5C16 31.5 16 31.5 16 31.5C16 31.5 16 31.5 16 31.5C16 31.5 16 31.5 16 31.5C16 31.5 16 31.5 16 31.5C16 31.5 16 31.5 16 31.5C16 31.5 16 31.5 16 31.5C16 31.5 16 31.5 16 31.5C16 31.5 16 31.5 16 31.5C16 31.5 16 31.5 16 31.5C16 31.5 16 31.5 16 31.5C16 31.5 16 31.5 16 31.5C16 31.5 16 31.5 16 31.5C16 31.5 16 31.5 16 31.5C16 31.5 16 31.5 16 31.5C16 31.5 16 31.5 16 31.5C16 31.5 16 31.5 16 31.5C16 31.5 16 31.5 16 31.5C16 31.5 16 31.5 16 31.5C16 31.5 16 31.5 16 31.5C16 31.5 16 31.5 16 31.5C16 31.5 16 31.5 16 31.5C16 31.5 16 31.5 16 31.5C16 31.5 16 31.5 16 31.5C16 31.5 16 31.5 16 31.5C16 31.5 16 31.5 16 31.5C16 31.5 16 31.5 16 31.5C16 31.5 16 31.5 16 31.5C16 31.5 16 31.5 16 31.5C16 31.5 16 31.5 16 31.5C16 31.5 16 31.5 16 31.5C16 31.5 16 31.5 16 31.5C16 31.5 16 31.5 16 31.5C16 31.5 16 31.5 16 31.5C16 31.5 16 31.5 16 31.5C16 31.5 16 31.5 16 31.5C16 31.5 16 31.5 16 31.5C16 31.5 16 31.5 16 31.5C16 31.5 16 31.5 16 31.5C16 31.5 16 31.5 16 31.5C16 31.5 16 31.5 16 31.5C16 31.5 16 31.5 16 31.5C16 31.5 16 31.5 16 31.5C16 31.5 16 31.5 16 31.5C16 31.5 16 31.5 16 31.5C16 31.5 16 31.5 16 31.5C16 31.5 16 31.5 16 31.5C16 31.5 16 31.5 16 31.5C16 31.5 16 31.5 16 31.5C16 31.5 16 31.5 16 31.5C16 31.5 16 31.5 16 31.5C16 31.5 16 31.5 16 31.5C16 31.5 16 31.5 16 31.5V32.5C16 32.5 16 32.5 16 32.5C16 32.5 16 32.5 16 32.5C16 32.5 16 32.5 16 32.5C16 32.5 16 32.5 16 32.5C16 32.5 16 32.5 16 32.5C16 32.5 16 32.5 16 32.5C16 32.5 16 32.5 16 32.5C16 32.5 16 32.5 16 32.5C16 32.5 16 32.5 16 32.5C16 32.5 16 32.5 16 32.5C16 32.5 16 32.5 16 32.5C16 32.5 16 32.5 16 32.5C16 32.5 16 32.5 16 32.5C16 32.5 16 32.5 16 32.5C16 32.5 16 32.5 16 32.5C16 32.5 16 32.5 16 32.5C16 32.5 16 32.5 16 32.5C16 32.5 16 32.5 16 32.5C16 32.5 16 32.5 16 32.5C16 32.5 16 32.5 16 32.5C16 32.5 16 32.5 16 32.5C16 32.5 16 32.5 16 32.5C16 32.5 16 32.5 16 32.5C16 32.5 16 32.5 16 32.5C16 32.5 16 32.5 16 32.5C16 32.5 16 32.5 16 32.5C16 32.5 16 32.5 16 32.5C16 32.5 16 32.5 16 32.5C16 32.5 16 32.5 16 32.5C16 32.5 16 32.5 16 32.5C16 32.5 16 32.5 16 32.5C16 32.5 16 32.5 16 32.5C16 32.5 16 32.5 16 32.5C16 32.5 16 32.5 16 32.5C16 32.5 16 32.5 16 32.5C16 32.5 16 32.5 16 32.5C16 32.5 16 32.5 16 32.5C16 32.5 16 32.5 16 32.5C16 32.5 16 32.5 16 32.5C16 32.5 16 32.5 16 32.5C16 32.5 16 32.5 16 32.5C16 32.5 16 32.5 16 32.5C16 32.5 16 32.5 16 32.5C16 32.5 16 32.5 16 32.5C16 32.5 16 32.5 16 32.5C16 32.5 16 32.5 16 32.5C16 32.5 16 32.5 16 32.5C16 32.5 16 32.5 16 32.5C16 32.5 16 32.5 16 32.5C16 32.5 16 32.5 16 32.5C16 32.5 16 32.5 16 32.5C16 32.5 16 32.5 16 32.5C16 32.5 16 32.5 16 32.5C16 32.5 16 32.5 16 32.5C16 32.5 16 32.5 16 32.5C16 32.5 16 32.5 16 32.5C16 32.5 16 32.5 16 32.5C16 32.5 16 32.5 16 32.5C16 32.5 16 32.5 16 32.5C16 32.5 16 32.5 16 32.5C16 32.5 16 32.5 16 32.5C16 32.5 16 32.5 16 32.5C16 32.5 16 32.5 16 32.5C16 32.5 16 32.5 16 32.5C16 32.5 16 32.5 16 32.5C16 32.5 16 32.5 16 32.5C16 32.5 16 32.5 16 32.5C16 32.5 16 32.5 16 32.5C16 32.5 16 32.5 16 32.5C16 32.5 16 32.5 16 32.5C16 32.5 16 32.5 16 32.5C16 32.5 16 32.5 16 32.5C16 32.5 16 32.5 16 32.5C16 32.5 16 32.5 16 32.5C16 32.5 16 32.5 16 32.5C16 32.5 16 32.5 16 32.5C16 32.5 16 32.5 16 32.5C16 32.5 16 32.5 16 32.5C16 32.5 16 32.5 16 32.5C16 32.5 16 32.5 16 32.5C16 32.5 16 32.5 16 32.5C16 32.5 16 32.5 16 32.5C16 32.5 16 32.5 16 32.5C16 32.5 16 32.5 16 32.5C16 32.5 16 32.5 16 32.5C16 32.5 16 32.5 16 32.5C16 32.5 16 32.5 16 32.5C16 32.5 16 32.5 16 32.5C16 32.5 16 32.5 16 32.5C16 32.5 16 32.5 16 32.5C16 32.5 16 32.5 16 32.5C16 32.5 16 32.5 16 32.5C16 32.5 16 32.5 16 32.5C16 32.5 16 32.5 16 32.5C16 32.5 16 32.5 16 32.5C16 32.5 16 32.5 16 32.5C16 32.5 16 32.5 16 32.5C16 32.5 16 32.5 16 32.5C16 32.5 16 32.5 16 32.5C16 32.5 16 32.5 16 32.5C16 32.5 16 32.5 16 32.5C16 32.5 16 32.5 16 32.5C16 32.5 16 32.5 16 32.5C16 32.5 16 32.5 16 32.5C16 32.5 16 32.5 16 32.5C16 32.5 16 32.5 16 32.5C16 32.5 16 32.5 16 32.5C16 32.5 16 32.5 16 32.5C16 32.5 16 32.5 16 32.5C16 32.5 16 32.5 16 32.5C16 32.5 16 32.5 16 32.5C16 32.5 16 32.5 16 32.5C16 32.5 16 32.5 16 32.5C16 32.5 16 32.5 16 32.5C16 32.5 16 32.5 16 32.5C16 32.5 16 32.5 16 32.5C16 32.5 16 32.5 16 32.5C16 32.5 16 32.5 16 32.5C16 32.5 16 32.5 16 32.5C16 32.5 16 32.5 16 32.5C16 32.5 16 32.5 16 32.5C16 32.5 16 32.5 16 32.5C16 32.5 16 32.5 16 32.5C16 32.5 16 32.5 16 32.5C16 32.5 16 32.5 16 32.5C16 32.5 16 32.5 16 32.5C16 32.5 16 32.5 16 32.5C16 32.5 16 32.5 16 32.5C16 32.5 16 32.5 16 32.5C16 32.5 16 32.5 16 32.5C16 32.5 16 32.5 16 32.5C16 32.5 16 32.5 16 32.5C16 32.5 16 32.5 16 32.5C16 32.5 16 32.5 16 32.5C16 32.5 16 32.5 16 32.5C16 32.5 16 32.5 16 32.5C16 32.5 16 32.5 16 32.5C16 32.5 16 32.5 16 32.5C16 32.5 16 32.5 16 32.5C16 32.5 16 32.5 16 32.5C16 32.5 16 32.5 16 32.5C16 32.5 16 32.5 16 32.5C16 32.5 16 32.5 16 32.5C16 32.5 16 32.5 16 32.5C16 32.5 16 32.5 16 32.5C16 32.5 16 32.5 16 32.5C16 32.5 16 32.5 16 32.5C16 32.5 16 32.5 16 32.5C16 32.5 16 32.5 16 32.5C16 32.5 16 32.5 16 32.5C16 32.5 16 32.5 16 32.5C16 32.5 16 32.5 16 32.5C16 32.5 16 32.5 16 32.5C16 32.5 16 32.5 16 32.5C16 32.5 16 32.5 16 32.5C16 32.5 16 32.5 16 32.5C16 32.5 16 32.5 16 32.5C16 32.5 16 32.5 16 32.5C16 32.5 16 32.5 16 32.5C16 32.5 16 32.5 16 32.5C16 32.5 16 32.5 16 32.5C16 32.5 16 32.5 16 32.5C16 32.5 16 32.5 16 32.5C16 32.5 16 32.5 16 32.5C16 32.5 16 32.5 16 32.5C16 32.5 16 32.5 16 32.5C16 32.5 16 32.5 16 32.5C16 32.5 16 32.5 16 32.5C16 32.5 16 32.5 16 32.5C16 32.5 16 32.5 16 32.5C16 32.5 16 32.5 16 32.5C16 32.5 16 32.5 16 32.5C16 32.5 16 32.5 16 32.5C16 32.5 16 32.5 16 32.5C16 32.5 16 32.5 16 32.5C16 32.5 16 32.5 16 32.5C16 32.5 16 32.5 16 32.5C16 32.5 16 32.5 16 32.5C16 32.5 16 32.5 16 32.5C16 32.5 16 32.5 16 32.5C16 32.5 16 32.5 16 32.5C16 32.5 16 32.5 16 32.5C16 32.5 16 32.5 16 32.5C16 32.5 16 32.5 16 32.5C16 32.5 16 32.5 16 32.5C16 32.5 16 32.5 16 32.5C16 32.5 16 32.5 16 32.5C16 32.5 16 32.5 16 32.5C16 32.5 16 32.5 16 32.5C16 32.5 16 32.5 16 32.5C16 32.5 16 32.5 16 32.5C16 32.5 16 32.5 16 32.5C16 32.5 16 32.5 16 32.5C16 32.5 16 32.5 16 32.5C16 32.5 16 32.5 16 32.5C16 32.5 16 32.5 16 32.5C16 32.5 16 32.5 16 32.5C16 32.5 16 32.5 16 32.5C16 32.5 16 32.5 16 32.5C16 32.5 16 32.5 16 32.5C16 32.5 16 32.5 16 32.5C16 32.5 16 32.5 16 32.5C16 32.5 16 32.5 16 32.5C16 32.5 16 32.5 16 32.5C16 32.5 16 32.5 16 32.5C16 32.5 16 32.5 16 32.5C16 32.5 16 32.5 16 32.5C16 32.5 16 32.5 16 32.5C16 32.5 16 32.5 16 32.5C16 32.5 16 32.5 16 32.5C16 32.5 16 32.5 16 32.5C16 32.5 16 32.5 16 32.5C16 32.5 16 32.5 16 32.5C16 32.5 16 32.5 16 32.5C16 32.5 16 32.5 16 32.5C16 32.5 16 32.5 16 32.5C16 32.5 16 32.5 16 32.5C16 32.5 16 32.5 16 32.5C16 32.5 16 32.5 16 32.5C16 32.5 16 32.5 16 32.5C16 32.5 16 32.5 16 32.5C16 32.5 16 32.5 16 32.5C16 32.5 16 32.5 16 32.5C16 32.5 16 32.5 16 32.5C16 32.5 16 32.5 16 32.5C16 32.5 16 32.5 16 32.5C16 32.5 16 32.5 16 32.5C16 32.5 16 32.5 16 32.5C16 32.5 16 32.5 16 32.5C16 32.5 16 32.5 16 32.5C16 32.5 16 32.5 16 32.5C16 32.5 16 32.5 16 32.5C16 32.5 16 32.5 16 32.5C16 32.5 16 32.5 16 32.5C16 32.5 16 32.5 16 32.5C16 32.5 16 32.5 16 32.5C16 32.5 16 32.5 16 32.5C16 32.5 16 32.5 16 32.5C16 32.5 16 32.5 16 32.5C16 32.5 16 32.5 16 32.5C16 32.5 16 32.5 16 32.5C16 32.5 16 32.5 16 32.5C16 32.5 16 32.5 16 32.5C16 32.5 16 32.5 16 32.5C16 32.5 16 32.5 16 32.5C16 32.5 16 32.5 16 32.5C16 32.5 16 32.5 16 32.5C16 32.5 16 32.5 16 32.5C16 32.5 16 32.5 16 32.5C16 32.5 16 32.5 16 32.5C16 32.5 16 32.5 16 32.5C16 32.5 16 32.5 16 32.5C16 32.5 16 32.5 16 32.5C16 32.5 16 32.5 16 32.5C16 32.5 16 32.5 16 32.5C16 32.5 16 32.5 16 32.5C16 32.5 16 32.5 16 32.5C16 32.5 16 32.5 16 32.5C16 32.5 16 32.5 16 32.5C16 32.5 16 32.5 16 32.5C16 32.5 16 32.5 16 32.5C16 32.5 16 32.5 16 32.5C16 32.5 16 32.5 16 32.5C16 32.5 16 32.5 16 32.5C16 32.5 16 32.5 16 32.5C16 32.5 16 32.5 16 32.5C16 32.5 16 32.5 16 32.5C16 32.5 16 32.5 16 32.5C16 32.5 16 32.5 16 32.5C16 32.5 16 32.5 16 32.5C16 32.5 16 32.5 16 32.5C16 32.5 16 32.5 16 32.5C16 32.5 16 32.5 16 32.5C16 32.5 16 32.5 16 32.5C16 32.5 16 32.5 16 32.5C16 32.5 16 32.5 16 32.5C16 32.5 16 32.5 16 32.5C16 32.5 16 32.5 16 32.5C16 32.5 16 32.5 16 32.5C16 32.5 16 32.5 16 32.5C16 32.5 16 32.5 16 32.5C16 32.5 16 32.5 16 32.5C16 32.5 16 32.5 16 32.5C16 32.5 16 32.5 16 32.5C16 32.5 16 32.5 16 32.5C16 32.5 16 32.5 16 32.5C16 32.5 16 32.5 16 32.5C16 32.5 16 32.5 16 32.5C16 32.5 16 32.5 16 32.5C16 32.5 16 32.5 16 32.5C16 32.5 16 32.5 16 32.5C16 32.5 16 32.5 16 32.5C16 32.5 16 32.5 16 32.5C16 32.5 16 32.5 16 32.5C16 32.5 16 32.5 16 32.5C16 32.5 16 32.5 16 32.5C16 32.5 16 32.5 16 32.5C16 32.5 16 32.5 16 32.5C16 32.5 16 32.5 16 32.5C16 32.5 16 32.5 16 32.5C16 32.5 16 32.5 16 32.5C16 32.5 16 32.5 16 32.5C16 32.5 16 32.5 16 32.5C16 32.5 16 32.5 16 32.5C16 32.5 16 32.5 16 32.5C16 32.5 16 32.5 16 32.5C16 32.5 16 32.5 16 32.5C16 32.5 16 32.5 16 32.5C16 32.5 16 32.5 16 32.5C16 32.5 16 32.5 16 32.5C16 32.5 16 32.5 16 32.5C16 32.5 16 32.5 16 32.5C16 32.5 16 32.5 16 32.5C16 32.5 16 32.5 16 32.5C16 32.5 16 32.5 16 32.5C16 32.5 16 32.5 16 32.5C16 32.5 16 32.5 16 32.5C16 32.5 16 32.5 16 32.5C16 32.5 16 32.5 16 32.5C16 32.5 16 32.5 16 32.5C16 32.5 16 32.5 16 32.5C16 32.5 16 32.5 16 32.5C16 32.5 16 32.5 16 32.5C16 32.5 16 32.5 16 32.5C16 32.5 16 32.5 16 32.5C16 32.5 16 32.5 16 32.5C16 32.5 16 32.5 16 32.5C16 32.5 16 32.5 16 32.5C16 32.5 16 32.5 16 32.5C16 32.5 16 32.5 16 32.5C16 32.5 16 32.5 16 32.5C16 32.5 16 32.5 16 32.5C16 32.5 16 32.5 16 32.5C16 32.5 16 32.5 16 32.5C16 32.5 16 32.5 16 32.5C16 32.5 16 32.5 16 32.5C16 32.5 16 32.5 16 32.5C16 32.5 16 32.5 16 32.5C16 32.5 16 32.5 16 32.5C16 32.5 16 32.5 16 32.5C16 32.5 16 32.5 16 32.5C16 32.5 16 32.5 16 32.5C16 32.5 16 32.5 16 32.5C16 32.5 16 32.5 16 32.5C16 32.5 16 32.5 16 32.5C16 32.5 16 32.5 16 32.5C16 32.5 16 32.5 16 32.5C16 32.5 16 32.5 16 32.5C16 32.5 16 32.5 16 32.5C16 32.5 16 32.5 16 32.5C16 32.5 16 32.5 16 32.5C16 32.5 16 32.5 16 32.5C16 32.5 16 32.5 16 32.5C16 32.5 16 32.5 16 32.5C16 32.5 16 32.5 16 32.5C16 32.5 16 32.5 16 32.5C16 32.5 16 32.5 16 32.5C16 32.5 16 32.5 16 32.5C16 32.5 16 32.5 16 32.5C16 32.5 16 32.5 16 32.5C16 32.5 16 32.5 16 32.5C16 32.5 16 32.5 16 32.5C16 32.5 16 32.5 16 32.5C16 32.5 16 32.5 16 32.5C16 32.5 16 32.5 16 32.5C16 32.5 16 32.5 16 32.5C16 32.5 16 32.5 16 32.5C16 32.5 16 32.5 16 32.5C16 32.5 16 32.5 16 32.5C16 32.5 16 32.5 16 32.5C16 32.5 16 32.5 16 32.5C16 32.5 16 32.5 16 32.5C16 32.5 16 32.5 16 32.5C16 32.5 16 32.5 16 32.5C16 32.5 16 32.5 16 32.5C16 32.5 16 32.5 16 32.5C16 32.5 16 32.5 16 32.5C16 32.5 16 32.5 16 32.5C16 32.5 16 32.5 16 32.5C16 32.5 16 32.5 16 32.5C16 32.5 16 32.5 16 32.5C16 32.5 16 32.5 16 32.5C16 32.5 16 32.5 16 32.5C16 32.5 16 32.5 16 32.5C16 32.5 16 32.5 16 32.5C16 32.5 16 32.5 16 32.5C16 32.5 16 32.5 16 32.5C16 32.5 16 32.5 16 32.5C16 32.5 16 32.5 16 32.5C16 32.5 16 32.5 16 32.5C16 32.5 16 32.5 16 32.5C16 32.5 16 32.5 16 32.5C16 32.5 16 32.5 16 32.5C16 32.5 16 32.5 16 32.5C16 32.5 16 32.5 16 32.5C16 32.5 16 32.5 16 32.5C16 32.5 16 32.5 16 32.5C16 32.5 16 32.5 16 32.5C16 32.5 16 32.5 16 32.5C16 32.5 16 32.5 16 32.5C16 32.5 16 32.5 16 32.5C16 32.5 16 32.5 16 32.5C16 32.5 16 32.5 16 32.5C16 32.5 16 32.5 16 32.5C16 32.5 16 32.5 16 32.5C16 32.5 16 32.5 16 32.5C16 32.5 16 32.5 16 32.5C16 32.5 16 32.5 16 32.5C16 32.5 16 32.5 16 32.5C16 32.5 16 32.5 16 32.5C16 32.5 16 32.5 16 32.5C16 32.5 16 32.5 16 32.5C16 32.5 16 32.5 16 32.5C16 32.5 16 32.5 16 32.5C16 32.5 16 32.5 16 32.5C16 32.5 16 32.5 16 32.5C16 32.5 16 32.5 16 32.5C16 32.5 16 32.5 16 32.5C16 32.5 16 32.5 16 32.5C16 32.5 16 32.5 16 32.5C16 32.5 16 32.5 16 32.5C16 32.5 16 32.5 16 32.5C16 32.5 16 32.5 16 32.5C16 32.5 16 32.5 16 32.5C16 32.5 16 32.5 16 32.5C16 32.5 16 32.5 16 32.5C16 32.5 16 32.5 16 32.5C16 32.5 16 32.5 16 32.5C16 32.5 16 32.5 16 32.5C16 32.5 16 32.5 16 32.5C16 32.5 16 32.5 16 32.5C16 32.5 16 32.5 16 32.5C16 32.5 16 32.5 16 32.5C16 32.5 16 32.5 16 32.5C16 32.5 16 32.5 16 32.5C16 32.5 16 32.5 16 32.5C16 32.5 16 32.5 16 32.5C16 32.5 16 32.5 16 32.5C16 32.5 16 32.5 16 32.5C16 32.5 16 32.5 16 32.5C16 32.5 16 32.5 16 32.5C16 32.5 16 32.5 16 32.5C16 32.5 16 32.5 16 32.5C16 32.5 16 32.5 16 32.5C16 32.5 16 32.5 16 32.5C16 32.5 16 32.5 16 32.5C16 32.5 16 32.5 16 32.5C16 32.5 16 32.5 16 32.5C16 32.5 16 32.5 16 32.5C16 32.5 16 32.5 16 32.5C16 32.5 16 32.5 16 32.5C16 32.5 16 32.5 16 32.5C16 32.5 16 32.5 16 32.5C16 32.5 16 32.5 16 32.5C16 32.5 16 32.5 16 32.5C16 32.5 16 32.5 16 32.5C16 32.5 16 32.5 16 32.5C16 32.5 16 32.5 16 32.5C16 32.5 16 32.5 16 32.5C16 32.5 16 32.5 16 32.5C16 32.5 16 32.5 16 32.5C16 32.5 16 32.5 16 32.5C16 32.5 16 32.5 16 32.5C16 32.5 16 32.5 16 32.5C16 32.5 16 32.5 16 32.5C16 32.5 16 32.5 16 32.5C16 32.5 16 32.5 16 32.5C16 32.5 16 32.5 16 32.5C16 32.5 16 32.5 16 32.5C16 32.5 16 32.5 16 32.5C16 32.5 16 32.5 16 32.5C16 32.5 16 32.5 16 32.5C16 32.5 16 32.5 16 32.5C16 32.5 16 32.5 16 32.5C16 32.5 16 32.5 16 32.5C16 32.5 16 32.5 16 32.5C16 32.5 16 32.5 16 32.5C16 32.5 16 32.5 16 32.5C16 32.5 16 32.5 16 32.5C16 32.5 16 32.5 16 32.5C16 32.5 16 32.5 16 32.5C16 32.5 16 32.5 16 32.5C16 32.5 16 32.5 16 32.5C16 32.5 16 32.5 16 32.5C16 32.5 16 32.5 16 32.5C16 32.5 16 32.5 16 32.5C16 32.5 16 32.5 16 32.5C16 32.5 16 32.5 16 32.5C16 32.5 16 32.5 16 32.5C16 32.5 16 32.5 16 32.5C16 32.5 16 32.5 16 32.5C16 32.5 16 32.5 16 32.5C16 32.5 16 32.5 16 32.5C16 32.5 16 32.5 16 32.5C16 32.5 16 32.5 16 32.5C16 32.5 16 32.5 16 32.5C16 32.5 16 32.5 16 32.5C16 32.5 16 32.5 16 32.5C16 32.5 16 32.5 16 32.5C16 32.5 16 32.5 16 32.5C16 32.5 16 32.5 16 32.5C16 32.5 16 32.5 16 32.5C16 32.5 16 32.5 16 32.5C16 32.5 16 32.5 16 32.5C16 32.5 16 32.5 16 32.5C16 32.5 16 32.5 16 32.5C16 32.5 16 32.5 16 32.5C16 32.5 16 32.5 16 32.5C16 32.5 16 32.5 16 32.5C16 32.5 16 32.5 16 32.5C16 32.5 16 32.5 16 32.5C16 32.5 16 32.5 16 32.5V31.5ZM16.5 31.9991C16.5 31.9891 16.5 31.9791 16.5 31.9693H15.5C15.5 31.9799 15.5 31.9904 15.5 32.0009L16.5 31.9991ZM16.5 31.9693C16.5 23.6387 23.0721 16.8429 31.314 16.4842L31.2705 15.4851C22.4961 15.867 15.5 23.101 15.5 31.9693H16.5ZM15.5 0C15.5 8.86826 22.4961 16.1022 31.2705 16.4842L31.314 15.4851C23.0721 15.1263 16.5 8.33054 16.5 0H15.5Z" fill="black" mask="url(#path-1-inside-1_8_9)"/>
</g>
</svg>
