<svg width="32" height="32" viewBox="0 0 32 32" fill="none" xmlns="http://www.w3.org/2000/svg">
<g clip-path="url(#clip0_1_2)">
<path d="M10.3089 25V7.54545H16.4112C17.6271 7.54545 18.63 7.75568 19.4197 8.17614C20.2095 8.59091 20.7976 9.15057 21.1839 9.85511C21.5703 10.554 21.7635 11.3295 21.7635 12.1818C21.7635 12.9318 21.63 13.5511 21.3629 14.0398C21.1016 14.5284 20.755 14.9148 20.3232 15.1989C19.897 15.483 19.4339 15.6932 18.9339 15.8295V16C19.468 16.0341 20.005 16.2216 20.5447 16.5625C21.0845 16.9034 21.5362 17.392 21.8999 18.0284C22.2635 18.6648 22.4453 19.4432 22.4453 20.3636C22.4453 21.2386 22.2464 22.0256 21.8487 22.7244C21.451 23.4233 20.8232 23.9773 19.9652 24.3864C19.1072 24.7955 17.9908 25 16.6158 25H10.3089ZM12.4226 23.125H16.6158C17.9964 23.125 18.9766 22.858 19.5561 22.3239C20.1413 21.7841 20.4339 21.1307 20.4339 20.3636C20.4339 19.7727 20.2834 19.2273 19.9822 18.7273C19.6811 18.2216 19.2521 17.8182 18.6953 17.517C18.1385 17.2102 17.4794 17.0568 16.718 17.0568H12.4226V23.125ZM12.4226 15.2159H16.343C16.9794 15.2159 17.5533 15.0909 18.0646 14.8409C18.5817 14.5909 18.9908 14.2386 19.2919 13.7841C19.5987 13.3295 19.7521 12.7955 19.7521 12.1818C19.7521 11.4148 19.4851 10.7642 18.951 10.2301C18.4169 9.69034 17.5703 9.42045 16.4112 9.42045H12.4226V15.2159Z" fill="black"/>
</g>
<defs>
<clipPath id="clip0_1_2">
<rect width="32" height="32" fill="white"/>
</clipPath>
</defs>
</svg>
